<?xml version="1.0" standalone="no"?><!-- Generator: Gravit.io --><svg xmlns="http://www.w3.org/2000/svg" xmlns:xlink="http://www.w3.org/1999/xlink" style="isolation:isolate" viewBox="0 0 50 50" width="50px" height="50px"><defs><clipPath id="_clipPath_xR9aEHSvTuHrJgrvnmoFZCW0pvpwPj9Z"><rect width="50" height="50"/></clipPath></defs><g clip-path="url(#_clipPath_xR9aEHSvTuHrJgrvnmoFZCW0pvpwPj9Z)"><path d=" M 17.6 10.7 C 13.8 13.1 13.6 13.2 10.3 11.6 C 8.4 10.7 6.4 10.2 5.9 10.5 C 5.4 10.9 5 13.5 5 16.4 C 5 19.2 4.5 22.1 4 22.6 C 3.3 23.3 3 27.2 3.2 32.1 L 3.5 40.5 L 22.4 40.8 C 41.8 41.1 44.3 40.6 43.9 37.1 C 43.7 36.2 44.5 33.8 45.5 31.8 C 46.5 29.7 47.2 27.9 46.9 27.7 C 46.7 27.5 40.4 24.7 33 21.5 C 25.6 18.3 19.1 15.4 18.7 15 C 18.2 14.6 19.5 13.3 21.5 12.1 C 23.5 11 24.8 9.5 24.5 9 C 23.6 7.5 21.9 7.9 17.6 10.7 Z  M 31.3 24.2 C 37.7 27 43 29.6 43 29.9 C 43 30.2 42.2 31.5 41.2 32.7 L 39.5 34.9 L 25.2 29.6 C 10.5 24.2 8.3 22.9 8 19.5 C 7.4 13.9 7.6 13.8 13.8 16.6 C 16.9 18 24.8 21.4 31.3 24.2 Z  M 21.4 31.5 C 28.9 34.2 35 36.7 35 37.1 C 35 37.4 28.5 37.7 20.5 37.8 L 6 38 L 6 31.9 C 6 28.6 6.4 26 6.9 26.2 C 7.3 26.3 13.9 28.7 21.4 31.5 Z " fill="rgb(19,97,221)"/></g></svg>